<?xml version="1.0" encoding="utf-8" standalone="no"?>
<!DOCTYPE svg PUBLIC "-//W3C//DTD SVG 1.1//EN"
  "http://www.w3.org/Graphics/SVG/1.1/DTD/svg11.dtd">
<svg xmlns:xlink="http://www.w3.org/1999/xlink" width="404.923125pt" height="325.986375pt" viewBox="0 0 404.923125 325.986375" xmlns="http://www.w3.org/2000/svg" version="1.1">
 <metadata>
  <rdf:RDF xmlns:dc="http://purl.org/dc/elements/1.1/" xmlns:cc="http://creativecommons.org/ns#" xmlns:rdf="http://www.w3.org/1999/02/22-rdf-syntax-ns#">
   <cc:Work>
    <dc:type rdf:resource="http://purl.org/dc/dcmitype/StillImage"/>
    <dc:date>2025-06-23T12:01:12.008115</dc:date>
    <dc:format>image/svg+xml</dc:format>
    <dc:creator>
     <cc:Agent>
      <dc:title>Matplotlib v3.10.3, https://matplotlib.org/</dc:title>
     </cc:Agent>
    </dc:creator>
   </cc:Work>
  </rdf:RDF>
 </metadata>
 <defs>
  <style type="text/css">*{stroke-linejoin: round; stroke-linecap: butt}</style>
 </defs>
 <g id="figure_1">
  <g id="patch_1">
   <path d="M 0 325.986375 
L 404.923125 325.986375 
L 404.923125 0 
L 0 0 
z
" style="fill: #ffffff"/>
  </g>
  <g id="axes_1">
   <g id="patch_2">
    <path d="M 40.603125 288.430125 
L 397.723125 288.430125 
L 397.723125 22.318125 
L 40.603125 22.318125 
z
" style="fill: #ffffff"/>
   </g>
   <g id="matplotlib.axis_1">
    <g id="xtick_1">
     <g id="line2d_1">
      <defs>
       <path id="m42814f5321" d="M 0 0 
L 0 3.5 
" style="stroke: #000000; stroke-width: 0.8"/>
      </defs>
      <g>
       <use xlink:href="#m42814f5321" x="55.118103" y="288.430125" style="stroke: #000000; stroke-width: 0.8"/>
      </g>
     </g>
     <g id="text_1">
      <!-- 0 -->
      <g transform="translate(51.936853 303.028562) scale(0.1 -0.1)">
       <defs>
        <path id="DejaVuSans-30" d="M 2034 4250 
Q 1547 4250 1301 3770 
Q 1056 3291 1056 2328 
Q 1056 1369 1301 889 
Q 1547 409 2034 409 
Q 2525 409 2770 889 
Q 3016 1369 3016 2328 
Q 3016 3291 2770 3770 
Q 2525 4250 2034 4250 
z
M 2034 4750 
Q 2819 4750 3233 4129 
Q 3647 3509 3647 2328 
Q 3647 1150 3233 529 
Q 2819 -91 2034 -91 
Q 1250 -91 836 529 
Q 422 1150 422 2328 
Q 422 3509 836 4129 
Q 1250 4750 2034 4750 
z
" transform="scale(0.015625)"/>
       </defs>
       <use xlink:href="#DejaVuSans-30"/>
      </g>
     </g>
    </g>
    <g id="xtick_2">
     <g id="line2d_2">
      <g>
       <use xlink:href="#m42814f5321" x="98.061826" y="288.430125" style="stroke: #000000; stroke-width: 0.8"/>
      </g>
     </g>
     <g id="text_2">
      <!-- 25 -->
      <g transform="translate(91.699326 303.028562) scale(0.1 -0.1)">
       <defs>
        <path id="DejaVuSans-32" d="M 1228 531 
L 3431 531 
L 3431 0 
L 469 0 
L 469 531 
Q 828 903 1448 1529 
Q 2069 2156 2228 2338 
Q 2531 2678 2651 2914 
Q 2772 3150 2772 3378 
Q 2772 3750 2511 3984 
Q 2250 4219 1831 4219 
Q 1534 4219 1204 4116 
Q 875 4013 500 3803 
L 500 4441 
Q 881 4594 1212 4672 
Q 1544 4750 1819 4750 
Q 2544 4750 2975 4387 
Q 3406 4025 3406 3419 
Q 3406 3131 3298 2873 
Q 3191 2616 2906 2266 
Q 2828 2175 2409 1742 
Q 1991 1309 1228 531 
z
" transform="scale(0.015625)"/>
        <path id="DejaVuSans-35" d="M 691 4666 
L 3169 4666 
L 3169 4134 
L 1269 4134 
L 1269 2991 
Q 1406 3038 1543 3061 
Q 1681 3084 1819 3084 
Q 2600 3084 3056 2656 
Q 3513 2228 3513 1497 
Q 3513 744 3044 326 
Q 2575 -91 1722 -91 
Q 1428 -91 1123 -41 
Q 819 9 494 109 
L 494 744 
Q 775 591 1075 516 
Q 1375 441 1709 441 
Q 2250 441 2565 725 
Q 2881 1009 2881 1497 
Q 2881 1984 2565 2268 
Q 2250 2553 1709 2553 
Q 1456 2553 1204 2497 
Q 953 2441 691 2322 
L 691 4666 
z
" transform="scale(0.015625)"/>
       </defs>
       <use xlink:href="#DejaVuSans-32"/>
       <use xlink:href="#DejaVuSans-35" transform="translate(63.623047 0)"/>
      </g>
     </g>
    </g>
    <g id="xtick_3">
     <g id="line2d_3">
      <g>
       <use xlink:href="#m42814f5321" x="141.005549" y="288.430125" style="stroke: #000000; stroke-width: 0.8"/>
      </g>
     </g>
     <g id="text_3">
      <!-- 50 -->
      <g transform="translate(134.643049 303.028562) scale(0.1 -0.1)">
       <use xlink:href="#DejaVuSans-35"/>
       <use xlink:href="#DejaVuSans-30" transform="translate(63.623047 0)"/>
      </g>
     </g>
    </g>
    <g id="xtick_4">
     <g id="line2d_4">
      <g>
       <use xlink:href="#m42814f5321" x="183.949272" y="288.430125" style="stroke: #000000; stroke-width: 0.8"/>
      </g>
     </g>
     <g id="text_4">
      <!-- 75 -->
      <g transform="translate(177.586772 303.028562) scale(0.1 -0.1)">
       <defs>
        <path id="DejaVuSans-37" d="M 525 4666 
L 3525 4666 
L 3525 4397 
L 1831 0 
L 1172 0 
L 2766 4134 
L 525 4134 
L 525 4666 
z
" transform="scale(0.015625)"/>
       </defs>
       <use xlink:href="#DejaVuSans-37"/>
       <use xlink:href="#DejaVuSans-35" transform="translate(63.623047 0)"/>
      </g>
     </g>
    </g>
    <g id="xtick_5">
     <g id="line2d_5">
      <g>
       <use xlink:href="#m42814f5321" x="226.892995" y="288.430125" style="stroke: #000000; stroke-width: 0.8"/>
      </g>
     </g>
     <g id="text_5">
      <!-- 100 -->
      <g transform="translate(217.349245 303.028562) scale(0.1 -0.1)">
       <defs>
        <path id="DejaVuSans-31" d="M 794 531 
L 1825 531 
L 1825 4091 
L 703 3866 
L 703 4441 
L 1819 4666 
L 2450 4666 
L 2450 531 
L 3481 531 
L 3481 0 
L 794 0 
L 794 531 
z
" transform="scale(0.015625)"/>
       </defs>
       <use xlink:href="#DejaVuSans-31"/>
       <use xlink:href="#DejaVuSans-30" transform="translate(63.623047 0)"/>
       <use xlink:href="#DejaVuSans-30" transform="translate(127.246094 0)"/>
      </g>
     </g>
    </g>
    <g id="xtick_6">
     <g id="line2d_6">
      <g>
       <use xlink:href="#m42814f5321" x="269.836718" y="288.430125" style="stroke: #000000; stroke-width: 0.8"/>
      </g>
     </g>
     <g id="text_6">
      <!-- 125 -->
      <g transform="translate(260.292968 303.028562) scale(0.1 -0.1)">
       <use xlink:href="#DejaVuSans-31"/>
       <use xlink:href="#DejaVuSans-32" transform="translate(63.623047 0)"/>
       <use xlink:href="#DejaVuSans-35" transform="translate(127.246094 0)"/>
      </g>
     </g>
    </g>
    <g id="xtick_7">
     <g id="line2d_7">
      <g>
       <use xlink:href="#m42814f5321" x="312.780441" y="288.430125" style="stroke: #000000; stroke-width: 0.8"/>
      </g>
     </g>
     <g id="text_7">
      <!-- 150 -->
      <g transform="translate(303.236691 303.028562) scale(0.1 -0.1)">
       <use xlink:href="#DejaVuSans-31"/>
       <use xlink:href="#DejaVuSans-35" transform="translate(63.623047 0)"/>
       <use xlink:href="#DejaVuSans-30" transform="translate(127.246094 0)"/>
      </g>
     </g>
    </g>
    <g id="xtick_8">
     <g id="line2d_8">
      <g>
       <use xlink:href="#m42814f5321" x="355.724164" y="288.430125" style="stroke: #000000; stroke-width: 0.8"/>
      </g>
     </g>
     <g id="text_8">
      <!-- 175 -->
      <g transform="translate(346.180414 303.028562) scale(0.1 -0.1)">
       <use xlink:href="#DejaVuSans-31"/>
       <use xlink:href="#DejaVuSans-37" transform="translate(63.623047 0)"/>
       <use xlink:href="#DejaVuSans-35" transform="translate(127.246094 0)"/>
      </g>
     </g>
    </g>
    <g id="text_9">
     <!-- Dt50 -->
     <g transform="translate(206.990469 316.706687) scale(0.1 -0.1)">
      <defs>
       <path id="DejaVuSans-44" d="M 1259 4147 
L 1259 519 
L 2022 519 
Q 2988 519 3436 956 
Q 3884 1394 3884 2338 
Q 3884 3275 3436 3711 
Q 2988 4147 2022 4147 
L 1259 4147 
z
M 628 4666 
L 1925 4666 
Q 3281 4666 3915 4102 
Q 4550 3538 4550 2338 
Q 4550 1131 3912 565 
Q 3275 0 1925 0 
L 628 0 
L 628 4666 
z
" transform="scale(0.015625)"/>
       <path id="DejaVuSans-74" d="M 1172 4494 
L 1172 3500 
L 2356 3500 
L 2356 3053 
L 1172 3053 
L 1172 1153 
Q 1172 725 1289 603 
Q 1406 481 1766 481 
L 2356 481 
L 2356 0 
L 1766 0 
Q 1100 0 847 248 
Q 594 497 594 1153 
L 594 3053 
L 172 3053 
L 172 3500 
L 594 3500 
L 594 4494 
L 1172 4494 
z
" transform="scale(0.015625)"/>
      </defs>
      <use xlink:href="#DejaVuSans-44"/>
      <use xlink:href="#DejaVuSans-74" transform="translate(77.001953 0)"/>
      <use xlink:href="#DejaVuSans-35" transform="translate(116.210938 0)"/>
      <use xlink:href="#DejaVuSans-30" transform="translate(179.833984 0)"/>
     </g>
    </g>
   </g>
   <g id="matplotlib.axis_2">
    <g id="ytick_1">
     <g id="line2d_9">
      <defs>
       <path id="me22f95d560" d="M 0 0 
L -3.5 0 
" style="stroke: #000000; stroke-width: 0.8"/>
      </defs>
      <g>
       <use xlink:href="#me22f95d560" x="40.603125" y="276.847295" style="stroke: #000000; stroke-width: 0.8"/>
      </g>
     </g>
     <g id="text_10">
      <!-- 0 -->
      <g transform="translate(27.240625 280.646514) scale(0.1 -0.1)">
       <use xlink:href="#DejaVuSans-30"/>
      </g>
     </g>
    </g>
    <g id="ytick_2">
     <g id="line2d_10">
      <g>
       <use xlink:href="#me22f95d560" x="40.603125" y="223.166884" style="stroke: #000000; stroke-width: 0.8"/>
      </g>
     </g>
     <g id="text_11">
      <!-- 5 -->
      <g transform="translate(27.240625 226.966103) scale(0.1 -0.1)">
       <use xlink:href="#DejaVuSans-35"/>
      </g>
     </g>
    </g>
    <g id="ytick_3">
     <g id="line2d_11">
      <g>
       <use xlink:href="#me22f95d560" x="40.603125" y="169.486473" style="stroke: #000000; stroke-width: 0.8"/>
      </g>
     </g>
     <g id="text_12">
      <!-- 10 -->
      <g transform="translate(20.878125 173.285692) scale(0.1 -0.1)">
       <use xlink:href="#DejaVuSans-31"/>
       <use xlink:href="#DejaVuSans-30" transform="translate(63.623047 0)"/>
      </g>
     </g>
    </g>
    <g id="ytick_4">
     <g id="line2d_12">
      <g>
       <use xlink:href="#me22f95d560" x="40.603125" y="115.806062" style="stroke: #000000; stroke-width: 0.8"/>
      </g>
     </g>
     <g id="text_13">
      <!-- 15 -->
      <g transform="translate(20.878125 119.605281) scale(0.1 -0.1)">
       <use xlink:href="#DejaVuSans-31"/>
       <use xlink:href="#DejaVuSans-35" transform="translate(63.623047 0)"/>
      </g>
     </g>
    </g>
    <g id="ytick_5">
     <g id="line2d_13">
      <g>
       <use xlink:href="#me22f95d560" x="40.603125" y="62.125651" style="stroke: #000000; stroke-width: 0.8"/>
      </g>
     </g>
     <g id="text_14">
      <!-- 20 -->
      <g transform="translate(20.878125 65.92487) scale(0.1 -0.1)">
       <use xlink:href="#DejaVuSans-32"/>
       <use xlink:href="#DejaVuSans-30" transform="translate(63.623047 0)"/>
      </g>
     </g>
    </g>
    <g id="text_15">
     <!-- Ratio Modified PEC/Base PEC -->
     <g transform="translate(14.798438 227.503812) rotate(-90) scale(0.1 -0.1)">
      <defs>
       <path id="DejaVuSans-52" d="M 2841 2188 
Q 3044 2119 3236 1894 
Q 3428 1669 3622 1275 
L 4263 0 
L 3584 0 
L 2988 1197 
Q 2756 1666 2539 1819 
Q 2322 1972 1947 1972 
L 1259 1972 
L 1259 0 
L 628 0 
L 628 4666 
L 2053 4666 
Q 2853 4666 3247 4331 
Q 3641 3997 3641 3322 
Q 3641 2881 3436 2590 
Q 3231 2300 2841 2188 
z
M 1259 4147 
L 1259 2491 
L 2053 2491 
Q 2509 2491 2742 2702 
Q 2975 2913 2975 3322 
Q 2975 3731 2742 3939 
Q 2509 4147 2053 4147 
L 1259 4147 
z
" transform="scale(0.015625)"/>
       <path id="DejaVuSans-61" d="M 2194 1759 
Q 1497 1759 1228 1600 
Q 959 1441 959 1056 
Q 959 750 1161 570 
Q 1363 391 1709 391 
Q 2188 391 2477 730 
Q 2766 1069 2766 1631 
L 2766 1759 
L 2194 1759 
z
M 3341 1997 
L 3341 0 
L 2766 0 
L 2766 531 
Q 2569 213 2275 61 
Q 1981 -91 1556 -91 
Q 1019 -91 701 211 
Q 384 513 384 1019 
Q 384 1609 779 1909 
Q 1175 2209 1959 2209 
L 2766 2209 
L 2766 2266 
Q 2766 2663 2505 2880 
Q 2244 3097 1772 3097 
Q 1472 3097 1187 3025 
Q 903 2953 641 2809 
L 641 3341 
Q 956 3463 1253 3523 
Q 1550 3584 1831 3584 
Q 2591 3584 2966 3190 
Q 3341 2797 3341 1997 
z
" transform="scale(0.015625)"/>
       <path id="DejaVuSans-69" d="M 603 3500 
L 1178 3500 
L 1178 0 
L 603 0 
L 603 3500 
z
M 603 4863 
L 1178 4863 
L 1178 4134 
L 603 4134 
L 603 4863 
z
" transform="scale(0.015625)"/>
       <path id="DejaVuSans-6f" d="M 1959 3097 
Q 1497 3097 1228 2736 
Q 959 2375 959 1747 
Q 959 1119 1226 758 
Q 1494 397 1959 397 
Q 2419 397 2687 759 
Q 2956 1122 2956 1747 
Q 2956 2369 2687 2733 
Q 2419 3097 1959 3097 
z
M 1959 3584 
Q 2709 3584 3137 3096 
Q 3566 2609 3566 1747 
Q 3566 888 3137 398 
Q 2709 -91 1959 -91 
Q 1206 -91 779 398 
Q 353 888 353 1747 
Q 353 2609 779 3096 
Q 1206 3584 1959 3584 
z
" transform="scale(0.015625)"/>
       <path id="DejaVuSans-20" transform="scale(0.015625)"/>
       <path id="DejaVuSans-4d" d="M 628 4666 
L 1569 4666 
L 2759 1491 
L 3956 4666 
L 4897 4666 
L 4897 0 
L 4281 0 
L 4281 4097 
L 3078 897 
L 2444 897 
L 1241 4097 
L 1241 0 
L 628 0 
L 628 4666 
z
" transform="scale(0.015625)"/>
       <path id="DejaVuSans-64" d="M 2906 2969 
L 2906 4863 
L 3481 4863 
L 3481 0 
L 2906 0 
L 2906 525 
Q 2725 213 2448 61 
Q 2172 -91 1784 -91 
Q 1150 -91 751 415 
Q 353 922 353 1747 
Q 353 2572 751 3078 
Q 1150 3584 1784 3584 
Q 2172 3584 2448 3432 
Q 2725 3281 2906 2969 
z
M 947 1747 
Q 947 1113 1208 752 
Q 1469 391 1925 391 
Q 2381 391 2643 752 
Q 2906 1113 2906 1747 
Q 2906 2381 2643 2742 
Q 2381 3103 1925 3103 
Q 1469 3103 1208 2742 
Q 947 2381 947 1747 
z
" transform="scale(0.015625)"/>
       <path id="DejaVuSans-66" d="M 2375 4863 
L 2375 4384 
L 1825 4384 
Q 1516 4384 1395 4259 
Q 1275 4134 1275 3809 
L 1275 3500 
L 2222 3500 
L 2222 3053 
L 1275 3053 
L 1275 0 
L 697 0 
L 697 3053 
L 147 3053 
L 147 3500 
L 697 3500 
L 697 3744 
Q 697 4328 969 4595 
Q 1241 4863 1831 4863 
L 2375 4863 
z
" transform="scale(0.015625)"/>
       <path id="DejaVuSans-65" d="M 3597 1894 
L 3597 1613 
L 953 1613 
Q 991 1019 1311 708 
Q 1631 397 2203 397 
Q 2534 397 2845 478 
Q 3156 559 3463 722 
L 3463 178 
Q 3153 47 2828 -22 
Q 2503 -91 2169 -91 
Q 1331 -91 842 396 
Q 353 884 353 1716 
Q 353 2575 817 3079 
Q 1281 3584 2069 3584 
Q 2775 3584 3186 3129 
Q 3597 2675 3597 1894 
z
M 3022 2063 
Q 3016 2534 2758 2815 
Q 2500 3097 2075 3097 
Q 1594 3097 1305 2825 
Q 1016 2553 972 2059 
L 3022 2063 
z
" transform="scale(0.015625)"/>
       <path id="DejaVuSans-50" d="M 1259 4147 
L 1259 2394 
L 2053 2394 
Q 2494 2394 2734 2622 
Q 2975 2850 2975 3272 
Q 2975 3691 2734 3919 
Q 2494 4147 2053 4147 
L 1259 4147 
z
M 628 4666 
L 2053 4666 
Q 2838 4666 3239 4311 
Q 3641 3956 3641 3272 
Q 3641 2581 3239 2228 
Q 2838 1875 2053 1875 
L 1259 1875 
L 1259 0 
L 628 0 
L 628 4666 
z
" transform="scale(0.015625)"/>
       <path id="DejaVuSans-45" d="M 628 4666 
L 3578 4666 
L 3578 4134 
L 1259 4134 
L 1259 2753 
L 3481 2753 
L 3481 2222 
L 1259 2222 
L 1259 531 
L 3634 531 
L 3634 0 
L 628 0 
L 628 4666 
z
" transform="scale(0.015625)"/>
       <path id="DejaVuSans-43" d="M 4122 4306 
L 4122 3641 
Q 3803 3938 3442 4084 
Q 3081 4231 2675 4231 
Q 1875 4231 1450 3742 
Q 1025 3253 1025 2328 
Q 1025 1406 1450 917 
Q 1875 428 2675 428 
Q 3081 428 3442 575 
Q 3803 722 4122 1019 
L 4122 359 
Q 3791 134 3420 21 
Q 3050 -91 2638 -91 
Q 1578 -91 968 557 
Q 359 1206 359 2328 
Q 359 3453 968 4101 
Q 1578 4750 2638 4750 
Q 3056 4750 3426 4639 
Q 3797 4528 4122 4306 
z
" transform="scale(0.015625)"/>
       <path id="DejaVuSans-2f" d="M 1625 4666 
L 2156 4666 
L 531 -594 
L 0 -594 
L 1625 4666 
z
" transform="scale(0.015625)"/>
       <path id="DejaVuSans-42" d="M 1259 2228 
L 1259 519 
L 2272 519 
Q 2781 519 3026 730 
Q 3272 941 3272 1375 
Q 3272 1813 3026 2020 
Q 2781 2228 2272 2228 
L 1259 2228 
z
M 1259 4147 
L 1259 2741 
L 2194 2741 
Q 2656 2741 2882 2914 
Q 3109 3088 3109 3444 
Q 3109 3797 2882 3972 
Q 2656 4147 2194 4147 
L 1259 4147 
z
M 628 4666 
L 2241 4666 
Q 2963 4666 3353 4366 
Q 3744 4066 3744 3513 
Q 3744 3084 3544 2831 
Q 3344 2578 2956 2516 
Q 3422 2416 3680 2098 
Q 3938 1781 3938 1306 
Q 3938 681 3513 340 
Q 3088 0 2303 0 
L 628 0 
L 628 4666 
z
" transform="scale(0.015625)"/>
       <path id="DejaVuSans-73" d="M 2834 3397 
L 2834 2853 
Q 2591 2978 2328 3040 
Q 2066 3103 1784 3103 
Q 1356 3103 1142 2972 
Q 928 2841 928 2578 
Q 928 2378 1081 2264 
Q 1234 2150 1697 2047 
L 1894 2003 
Q 2506 1872 2764 1633 
Q 3022 1394 3022 966 
Q 3022 478 2636 193 
Q 2250 -91 1575 -91 
Q 1294 -91 989 -36 
Q 684 19 347 128 
L 347 722 
Q 666 556 975 473 
Q 1284 391 1588 391 
Q 1994 391 2212 530 
Q 2431 669 2431 922 
Q 2431 1156 2273 1281 
Q 2116 1406 1581 1522 
L 1381 1569 
Q 847 1681 609 1914 
Q 372 2147 372 2553 
Q 372 3047 722 3315 
Q 1072 3584 1716 3584 
Q 2034 3584 2315 3537 
Q 2597 3491 2834 3397 
z
" transform="scale(0.015625)"/>
      </defs>
      <use xlink:href="#DejaVuSans-52"/>
      <use xlink:href="#DejaVuSans-61" transform="translate(67.232422 0)"/>
      <use xlink:href="#DejaVuSans-74" transform="translate(128.511719 0)"/>
      <use xlink:href="#DejaVuSans-69" transform="translate(167.720703 0)"/>
      <use xlink:href="#DejaVuSans-6f" transform="translate(195.503906 0)"/>
      <use xlink:href="#DejaVuSans-20" transform="translate(256.685547 0)"/>
      <use xlink:href="#DejaVuSans-4d" transform="translate(288.472656 0)"/>
      <use xlink:href="#DejaVuSans-6f" transform="translate(374.751953 0)"/>
      <use xlink:href="#DejaVuSans-64" transform="translate(435.933594 0)"/>
      <use xlink:href="#DejaVuSans-69" transform="translate(499.410156 0)"/>
      <use xlink:href="#DejaVuSans-66" transform="translate(527.193359 0)"/>
      <use xlink:href="#DejaVuSans-69" transform="translate(562.398438 0)"/>
      <use xlink:href="#DejaVuSans-65" transform="translate(590.181641 0)"/>
      <use xlink:href="#DejaVuSans-64" transform="translate(651.705078 0)"/>
      <use xlink:href="#DejaVuSans-20" transform="translate(715.181641 0)"/>
      <use xlink:href="#DejaVuSans-50" transform="translate(746.96875 0)"/>
      <use xlink:href="#DejaVuSans-45" transform="translate(807.271484 0)"/>
      <use xlink:href="#DejaVuSans-43" transform="translate(870.455078 0)"/>
      <use xlink:href="#DejaVuSans-2f" transform="translate(940.279297 0)"/>
      <use xlink:href="#DejaVuSans-42" transform="translate(973.970703 0)"/>
      <use xlink:href="#DejaVuSans-61" transform="translate(1042.574219 0)"/>
      <use xlink:href="#DejaVuSans-73" transform="translate(1103.853516 0)"/>
      <use xlink:href="#DejaVuSans-65" transform="translate(1155.953125 0)"/>
      <use xlink:href="#DejaVuSans-20" transform="translate(1217.476562 0)"/>
      <use xlink:href="#DejaVuSans-50" transform="translate(1249.263672 0)"/>
      <use xlink:href="#DejaVuSans-45" transform="translate(1309.566406 0)"/>
      <use xlink:href="#DejaVuSans-43" transform="translate(1372.75 0)"/>
     </g>
    </g>
   </g>
   <g id="line2d_14">
    <path d="M 56.835852 266.111213 
L 58.553601 266.111213 
L 60.27135 266.111213 
L 61.989099 266.111213 
L 63.706848 266.111213 
L 65.424597 266.111213 
L 67.142346 266.111213 
L 68.860095 266.111213 
L 70.577844 266.111213 
L 72.295593 266.111213 
L 80.884337 266.111213 
L 89.473082 266.111213 
L 98.061826 266.111213 
L 106.650571 266.111213 
L 115.239315 266.111213 
L 123.82806 266.111213 
L 132.416805 266.111213 
L 141.005549 266.111213 
L 158.183038 266.111213 
L 175.360528 266.111213 
L 192.538017 266.111213 
L 209.715506 266.111213 
L 226.892995 266.111213 
L 244.070484 266.111213 
L 261.247973 266.111213 
L 278.425463 266.111213 
L 295.602952 266.111213 
L 312.780441 266.111213 
L 329.95793 266.111213 
L 347.135419 266.111213 
L 364.312909 266.111213 
L 381.490398 266.111213 
" clip-path="url(#p972add6594)" style="fill: none; stroke: #1f77b4; stroke-width: 1.5; stroke-linecap: square"/>
   </g>
   <g id="line2d_15">
    <path d="M 60.27135 34.414125 
L 61.989099 108.292697 
L 63.706848 201.27308 
L 65.424597 231.248409 
L 67.142346 236.304723 
L 68.860095 240.837093 
L 70.577844 237.786363 
L 72.295593 235.406846 
L 80.884337 249.379109 
L 89.473082 255.558334 
L 98.061826 257.465862 
L 106.650571 258.547814 
L 115.239315 260.05177 
L 123.82806 261.034784 
L 132.416805 261.691995 
L 141.005549 261.903762 
L 158.183038 262.422876 
L 175.360528 263.007211 
L 192.538017 263.435588 
L 209.715506 263.812443 
L 226.892995 264.15787 
L 244.070484 264.333932 
L 261.247973 264.44074 
L 278.425463 264.594326 
L 295.602952 264.752448 
L 312.780441 264.891219 
L 329.95793 264.985652 
L 347.135419 264.855728 
L 364.312909 264.919351 
L 381.490398 264.981599 
" clip-path="url(#p972add6594)" style="fill: none; stroke: #ff7f0e; stroke-width: 1.5; stroke-linecap: square"/>
   </g>
   <g id="line2d_16">
    <path d="M 60.27135 226.314837 
L 61.989099 234.452974 
L 63.706848 249.584093 
L 65.424597 254.940116 
L 67.142346 256.635922 
L 68.860095 257.269545 
L 70.577844 254.742163 
L 72.295593 256.128895 
L 80.884337 259.878979 
L 89.473082 261.58778 
L 98.061826 262.444509 
L 106.650571 262.875193 
L 115.239315 263.456855 
L 123.82806 263.845297 
L 132.416805 264.10592 
L 141.005549 264.058781 
L 158.183038 264.409593 
L 175.360528 264.663237 
L 192.538017 264.851136 
L 209.715506 265.044084 
L 226.892995 265.159263 
L 244.070484 265.280238 
L 261.247973 265.324785 
L 278.425463 265.364653 
L 295.602952 265.445847 
L 312.780441 265.505363 
L 329.95793 265.573461 
L 347.135419 265.602696 
L 364.312909 265.508348 
L 381.490398 265.536794 
" clip-path="url(#p972add6594)" style="fill: none; stroke: #2ca02c; stroke-width: 1.5; stroke-linecap: square"/>
   </g>
   <g id="line2d_17">
    <path d="M 60.27135 274.534651 
L 61.989099 274.114811 
L 63.706848 272.121838 
L 65.424597 271.60888 
L 67.142346 271.165416 
L 68.860095 270.818693 
L 70.577844 271.571701 
L 72.295593 271.308038 
L 80.884337 269.588293 
L 89.473082 269.400348 
L 98.061826 269.06002 
L 106.650571 268.552492 
L 115.239315 268.202255 
L 123.82806 267.952933 
L 132.416805 267.998283 
L 141.005549 267.834198 
L 158.183038 267.572111 
L 175.360528 267.384169 
L 192.538017 267.209112 
L 209.715506 267.060479 
L 226.892995 266.975898 
L 244.070484 266.878471 
L 261.247973 266.807189 
L 278.425463 266.792255 
L 295.602952 266.756728 
L 312.780441 266.70222 
L 329.95793 266.653554 
L 347.135419 266.5936 
L 364.312909 266.592294 
L 381.490398 266.609114 
" clip-path="url(#p972add6594)" style="fill: none; stroke: #d62728; stroke-width: 1.5; stroke-linecap: square"/>
   </g>
   <g id="line2d_18">
    <path d="M 60.27135 276.334125 
L 61.989099 276.150501 
L 63.706848 274.648028 
L 65.424597 274.312667 
L 67.142346 273.873462 
L 68.860095 273.912152 
L 70.577844 274.278111 
L 72.295593 274.008484 
L 80.884337 271.953944 
L 89.473082 271.716358 
L 98.061826 271.169395 
L 106.650571 270.409772 
L 115.239315 269.865637 
L 123.82806 269.644405 
L 132.416805 269.555784 
L 141.005549 269.279907 
L 158.183038 268.836502 
L 175.360528 268.502811 
L 192.538017 268.147773 
L 209.715506 267.91972 
L 226.892995 267.764769 
L 244.070484 267.60653 
L 261.247973 267.471314 
L 278.425463 267.387424 
L 295.602952 267.36351 
L 312.780441 267.274173 
L 329.95793 267.18518 
L 347.135419 267.082553 
L 364.312909 267.027977 
L 381.490398 267.049117 
" clip-path="url(#p972add6594)" style="fill: none; stroke: #9467bd; stroke-width: 1.5; stroke-linecap: square"/>
   </g>
   <g id="patch_3">
    <path d="M 40.603125 288.430125 
L 40.603125 22.318125 
" style="fill: none; stroke: #000000; stroke-width: 0.8; stroke-linejoin: miter; stroke-linecap: square"/>
   </g>
   <g id="patch_4">
    <path d="M 397.723125 288.430125 
L 397.723125 22.318125 
" style="fill: none; stroke: #000000; stroke-width: 0.8; stroke-linejoin: miter; stroke-linecap: square"/>
   </g>
   <g id="patch_5">
    <path d="M 40.603125 288.430125 
L 397.723125 288.430125 
" style="fill: none; stroke: #000000; stroke-width: 0.8; stroke-linejoin: miter; stroke-linecap: square"/>
   </g>
   <g id="patch_6">
    <path d="M 40.603125 22.318125 
L 397.723125 22.318125 
" style="fill: none; stroke: #000000; stroke-width: 0.8; stroke-linejoin: miter; stroke-linecap: square"/>
   </g>
   <g id="text_16">
    <!-- Ratios after Fuzzing Koc over different Dt50 -->
    <g transform="translate(88.336875 16.318125) scale(0.12 -0.12)">
     <defs>
      <path id="DejaVuSans-72" d="M 2631 2963 
Q 2534 3019 2420 3045 
Q 2306 3072 2169 3072 
Q 1681 3072 1420 2755 
Q 1159 2438 1159 1844 
L 1159 0 
L 581 0 
L 581 3500 
L 1159 3500 
L 1159 2956 
Q 1341 3275 1631 3429 
Q 1922 3584 2338 3584 
Q 2397 3584 2469 3576 
Q 2541 3569 2628 3553 
L 2631 2963 
z
" transform="scale(0.015625)"/>
      <path id="DejaVuSans-46" d="M 628 4666 
L 3309 4666 
L 3309 4134 
L 1259 4134 
L 1259 2759 
L 3109 2759 
L 3109 2228 
L 1259 2228 
L 1259 0 
L 628 0 
L 628 4666 
z
" transform="scale(0.015625)"/>
      <path id="DejaVuSans-75" d="M 544 1381 
L 544 3500 
L 1119 3500 
L 1119 1403 
Q 1119 906 1312 657 
Q 1506 409 1894 409 
Q 2359 409 2629 706 
Q 2900 1003 2900 1516 
L 2900 3500 
L 3475 3500 
L 3475 0 
L 2900 0 
L 2900 538 
Q 2691 219 2414 64 
Q 2138 -91 1772 -91 
Q 1169 -91 856 284 
Q 544 659 544 1381 
z
M 1991 3584 
L 1991 3584 
z
" transform="scale(0.015625)"/>
      <path id="DejaVuSans-7a" d="M 353 3500 
L 3084 3500 
L 3084 2975 
L 922 459 
L 3084 459 
L 3084 0 
L 275 0 
L 275 525 
L 2438 3041 
L 353 3041 
L 353 3500 
z
" transform="scale(0.015625)"/>
      <path id="DejaVuSans-6e" d="M 3513 2113 
L 3513 0 
L 2938 0 
L 2938 2094 
Q 2938 2591 2744 2837 
Q 2550 3084 2163 3084 
Q 1697 3084 1428 2787 
Q 1159 2491 1159 1978 
L 1159 0 
L 581 0 
L 581 3500 
L 1159 3500 
L 1159 2956 
Q 1366 3272 1645 3428 
Q 1925 3584 2291 3584 
Q 2894 3584 3203 3211 
Q 3513 2838 3513 2113 
z
" transform="scale(0.015625)"/>
      <path id="DejaVuSans-67" d="M 2906 1791 
Q 2906 2416 2648 2759 
Q 2391 3103 1925 3103 
Q 1463 3103 1205 2759 
Q 947 2416 947 1791 
Q 947 1169 1205 825 
Q 1463 481 1925 481 
Q 2391 481 2648 825 
Q 2906 1169 2906 1791 
z
M 3481 434 
Q 3481 -459 3084 -895 
Q 2688 -1331 1869 -1331 
Q 1566 -1331 1297 -1286 
Q 1028 -1241 775 -1147 
L 775 -588 
Q 1028 -725 1275 -790 
Q 1522 -856 1778 -856 
Q 2344 -856 2625 -561 
Q 2906 -266 2906 331 
L 2906 616 
Q 2728 306 2450 153 
Q 2172 0 1784 0 
Q 1141 0 747 490 
Q 353 981 353 1791 
Q 353 2603 747 3093 
Q 1141 3584 1784 3584 
Q 2172 3584 2450 3431 
Q 2728 3278 2906 2969 
L 2906 3500 
L 3481 3500 
L 3481 434 
z
" transform="scale(0.015625)"/>
      <path id="DejaVuSans-4b" d="M 628 4666 
L 1259 4666 
L 1259 2694 
L 3353 4666 
L 4166 4666 
L 1850 2491 
L 4331 0 
L 3500 0 
L 1259 2247 
L 1259 0 
L 628 0 
L 628 4666 
z
" transform="scale(0.015625)"/>
      <path id="DejaVuSans-63" d="M 3122 3366 
L 3122 2828 
Q 2878 2963 2633 3030 
Q 2388 3097 2138 3097 
Q 1578 3097 1268 2742 
Q 959 2388 959 1747 
Q 959 1106 1268 751 
Q 1578 397 2138 397 
Q 2388 397 2633 464 
Q 2878 531 3122 666 
L 3122 134 
Q 2881 22 2623 -34 
Q 2366 -91 2075 -91 
Q 1284 -91 818 406 
Q 353 903 353 1747 
Q 353 2603 823 3093 
Q 1294 3584 2113 3584 
Q 2378 3584 2631 3529 
Q 2884 3475 3122 3366 
z
" transform="scale(0.015625)"/>
      <path id="DejaVuSans-76" d="M 191 3500 
L 800 3500 
L 1894 563 
L 2988 3500 
L 3597 3500 
L 2284 0 
L 1503 0 
L 191 3500 
z
" transform="scale(0.015625)"/>
     </defs>
     <use xlink:href="#DejaVuSans-52"/>
     <use xlink:href="#DejaVuSans-61" transform="translate(67.232422 0)"/>
     <use xlink:href="#DejaVuSans-74" transform="translate(128.511719 0)"/>
     <use xlink:href="#DejaVuSans-69" transform="translate(167.720703 0)"/>
     <use xlink:href="#DejaVuSans-6f" transform="translate(195.503906 0)"/>
     <use xlink:href="#DejaVuSans-73" transform="translate(256.685547 0)"/>
     <use xlink:href="#DejaVuSans-20" transform="translate(308.785156 0)"/>
     <use xlink:href="#DejaVuSans-61" transform="translate(340.572266 0)"/>
     <use xlink:href="#DejaVuSans-66" transform="translate(401.851562 0)"/>
     <use xlink:href="#DejaVuSans-74" transform="translate(435.306641 0)"/>
     <use xlink:href="#DejaVuSans-65" transform="translate(474.515625 0)"/>
     <use xlink:href="#DejaVuSans-72" transform="translate(536.039062 0)"/>
     <use xlink:href="#DejaVuSans-20" transform="translate(577.152344 0)"/>
     <use xlink:href="#DejaVuSans-46" transform="translate(608.939453 0)"/>
     <use xlink:href="#DejaVuSans-75" transform="translate(660.958984 0)"/>
     <use xlink:href="#DejaVuSans-7a" transform="translate(724.337891 0)"/>
     <use xlink:href="#DejaVuSans-7a" transform="translate(776.828125 0)"/>
     <use xlink:href="#DejaVuSans-69" transform="translate(829.318359 0)"/>
     <use xlink:href="#DejaVuSans-6e" transform="translate(857.101562 0)"/>
     <use xlink:href="#DejaVuSans-67" transform="translate(920.480469 0)"/>
     <use xlink:href="#DejaVuSans-20" transform="translate(983.957031 0)"/>
     <use xlink:href="#DejaVuSans-4b" transform="translate(1015.744141 0)"/>
     <use xlink:href="#DejaVuSans-6f" transform="translate(1076.320312 0)"/>
     <use xlink:href="#DejaVuSans-63" transform="translate(1137.501953 0)"/>
     <use xlink:href="#DejaVuSans-20" transform="translate(1192.482422 0)"/>
     <use xlink:href="#DejaVuSans-6f" transform="translate(1224.269531 0)"/>
     <use xlink:href="#DejaVuSans-76" transform="translate(1285.451172 0)"/>
     <use xlink:href="#DejaVuSans-65" transform="translate(1344.630859 0)"/>
     <use xlink:href="#DejaVuSans-72" transform="translate(1406.154297 0)"/>
     <use xlink:href="#DejaVuSans-20" transform="translate(1447.267578 0)"/>
     <use xlink:href="#DejaVuSans-64" transform="translate(1479.054688 0)"/>
     <use xlink:href="#DejaVuSans-69" transform="translate(1542.53125 0)"/>
     <use xlink:href="#DejaVuSans-66" transform="translate(1570.314453 0)"/>
     <use xlink:href="#DejaVuSans-66" transform="translate(1605.519531 0)"/>
     <use xlink:href="#DejaVuSans-65" transform="translate(1640.724609 0)"/>
     <use xlink:href="#DejaVuSans-72" transform="translate(1702.248047 0)"/>
     <use xlink:href="#DejaVuSans-65" transform="translate(1741.111328 0)"/>
     <use xlink:href="#DejaVuSans-6e" transform="translate(1802.634766 0)"/>
     <use xlink:href="#DejaVuSans-74" transform="translate(1866.013672 0)"/>
     <use xlink:href="#DejaVuSans-20" transform="translate(1905.222656 0)"/>
     <use xlink:href="#DejaVuSans-44" transform="translate(1937.009766 0)"/>
     <use xlink:href="#DejaVuSans-74" transform="translate(2014.011719 0)"/>
     <use xlink:href="#DejaVuSans-35" transform="translate(2053.220703 0)"/>
     <use xlink:href="#DejaVuSans-30" transform="translate(2116.84375 0)"/>
    </g>
   </g>
   <g id="legend_1">
    <g id="patch_7">
     <path d="M 248.740312 103.70875 
L 390.723125 103.70875 
Q 392.723125 103.70875 392.723125 101.70875 
L 392.723125 29.318125 
Q 392.723125 27.318125 390.723125 27.318125 
L 248.740312 27.318125 
Q 246.740312 27.318125 246.740312 29.318125 
L 246.740312 101.70875 
Q 246.740312 103.70875 248.740312 103.70875 
z
" style="fill: #ffffff; opacity: 0.8; stroke: #cccccc; stroke-linejoin: miter"/>
    </g>
    <g id="line2d_19">
     <path d="M 250.740312 35.416562 
L 260.740312 35.416562 
L 270.740312 35.416562 
" style="fill: none; stroke: #1f77b4; stroke-width: 1.5; stroke-linecap: square"/>
    </g>
    <g id="text_17">
     <!-- Unchanged -->
     <g transform="translate(278.740312 38.916562) scale(0.1 -0.1)">
      <defs>
       <path id="DejaVuSans-55" d="M 556 4666 
L 1191 4666 
L 1191 1831 
Q 1191 1081 1462 751 
Q 1734 422 2344 422 
Q 2950 422 3222 751 
Q 3494 1081 3494 1831 
L 3494 4666 
L 4128 4666 
L 4128 1753 
Q 4128 841 3676 375 
Q 3225 -91 2344 -91 
Q 1459 -91 1007 375 
Q 556 841 556 1753 
L 556 4666 
z
" transform="scale(0.015625)"/>
       <path id="DejaVuSans-68" d="M 3513 2113 
L 3513 0 
L 2938 0 
L 2938 2094 
Q 2938 2591 2744 2837 
Q 2550 3084 2163 3084 
Q 1697 3084 1428 2787 
Q 1159 2491 1159 1978 
L 1159 0 
L 581 0 
L 581 4863 
L 1159 4863 
L 1159 2956 
Q 1366 3272 1645 3428 
Q 1925 3584 2291 3584 
Q 2894 3584 3203 3211 
Q 3513 2838 3513 2113 
z
" transform="scale(0.015625)"/>
      </defs>
      <use xlink:href="#DejaVuSans-55"/>
      <use xlink:href="#DejaVuSans-6e" transform="translate(73.193359 0)"/>
      <use xlink:href="#DejaVuSans-63" transform="translate(136.572266 0)"/>
      <use xlink:href="#DejaVuSans-68" transform="translate(191.552734 0)"/>
      <use xlink:href="#DejaVuSans-61" transform="translate(254.931641 0)"/>
      <use xlink:href="#DejaVuSans-6e" transform="translate(316.210938 0)"/>
      <use xlink:href="#DejaVuSans-67" transform="translate(379.589844 0)"/>
      <use xlink:href="#DejaVuSans-65" transform="translate(443.066406 0)"/>
      <use xlink:href="#DejaVuSans-64" transform="translate(504.589844 0)"/>
     </g>
    </g>
    <g id="line2d_20">
     <path d="M 250.740312 50.094688 
L 260.740312 50.094688 
L 270.740312 50.094688 
" style="fill: none; stroke: #ff7f0e; stroke-width: 1.5; stroke-linecap: square"/>
    </g>
    <g id="text_18">
     <!-- Decreased by 10.00% -->
     <g transform="translate(278.740312 53.594688) scale(0.1 -0.1)">
      <defs>
       <path id="DejaVuSans-62" d="M 3116 1747 
Q 3116 2381 2855 2742 
Q 2594 3103 2138 3103 
Q 1681 3103 1420 2742 
Q 1159 2381 1159 1747 
Q 1159 1113 1420 752 
Q 1681 391 2138 391 
Q 2594 391 2855 752 
Q 3116 1113 3116 1747 
z
M 1159 2969 
Q 1341 3281 1617 3432 
Q 1894 3584 2278 3584 
Q 2916 3584 3314 3078 
Q 3713 2572 3713 1747 
Q 3713 922 3314 415 
Q 2916 -91 2278 -91 
Q 1894 -91 1617 61 
Q 1341 213 1159 525 
L 1159 0 
L 581 0 
L 581 4863 
L 1159 4863 
L 1159 2969 
z
" transform="scale(0.015625)"/>
       <path id="DejaVuSans-79" d="M 2059 -325 
Q 1816 -950 1584 -1140 
Q 1353 -1331 966 -1331 
L 506 -1331 
L 506 -850 
L 844 -850 
Q 1081 -850 1212 -737 
Q 1344 -625 1503 -206 
L 1606 56 
L 191 3500 
L 800 3500 
L 1894 763 
L 2988 3500 
L 3597 3500 
L 2059 -325 
z
" transform="scale(0.015625)"/>
       <path id="DejaVuSans-2e" d="M 684 794 
L 1344 794 
L 1344 0 
L 684 0 
L 684 794 
z
" transform="scale(0.015625)"/>
       <path id="DejaVuSans-25" d="M 4653 2053 
Q 4381 2053 4226 1822 
Q 4072 1591 4072 1178 
Q 4072 772 4226 539 
Q 4381 306 4653 306 
Q 4919 306 5073 539 
Q 5228 772 5228 1178 
Q 5228 1588 5073 1820 
Q 4919 2053 4653 2053 
z
M 4653 2450 
Q 5147 2450 5437 2106 
Q 5728 1763 5728 1178 
Q 5728 594 5436 251 
Q 5144 -91 4653 -91 
Q 4153 -91 3862 251 
Q 3572 594 3572 1178 
Q 3572 1766 3864 2108 
Q 4156 2450 4653 2450 
z
M 1428 4353 
Q 1159 4353 1004 4120 
Q 850 3888 850 3481 
Q 850 3069 1003 2837 
Q 1156 2606 1428 2606 
Q 1700 2606 1854 2837 
Q 2009 3069 2009 3481 
Q 2009 3884 1853 4118 
Q 1697 4353 1428 4353 
z
M 4250 4750 
L 4750 4750 
L 1831 -91 
L 1331 -91 
L 4250 4750 
z
M 1428 4750 
Q 1922 4750 2215 4408 
Q 2509 4066 2509 3481 
Q 2509 2891 2217 2550 
Q 1925 2209 1428 2209 
Q 931 2209 642 2551 
Q 353 2894 353 3481 
Q 353 4063 643 4406 
Q 934 4750 1428 4750 
z
" transform="scale(0.015625)"/>
      </defs>
      <use xlink:href="#DejaVuSans-44"/>
      <use xlink:href="#DejaVuSans-65" transform="translate(77.001953 0)"/>
      <use xlink:href="#DejaVuSans-63" transform="translate(138.525391 0)"/>
      <use xlink:href="#DejaVuSans-72" transform="translate(193.505859 0)"/>
      <use xlink:href="#DejaVuSans-65" transform="translate(232.369141 0)"/>
      <use xlink:href="#DejaVuSans-61" transform="translate(293.892578 0)"/>
      <use xlink:href="#DejaVuSans-73" transform="translate(355.171875 0)"/>
      <use xlink:href="#DejaVuSans-65" transform="translate(407.271484 0)"/>
      <use xlink:href="#DejaVuSans-64" transform="translate(468.794922 0)"/>
      <use xlink:href="#DejaVuSans-20" transform="translate(532.271484 0)"/>
      <use xlink:href="#DejaVuSans-62" transform="translate(564.058594 0)"/>
      <use xlink:href="#DejaVuSans-79" transform="translate(627.535156 0)"/>
      <use xlink:href="#DejaVuSans-20" transform="translate(686.714844 0)"/>
      <use xlink:href="#DejaVuSans-31" transform="translate(718.501953 0)"/>
      <use xlink:href="#DejaVuSans-30" transform="translate(782.125 0)"/>
      <use xlink:href="#DejaVuSans-2e" transform="translate(845.748047 0)"/>
      <use xlink:href="#DejaVuSans-30" transform="translate(877.535156 0)"/>
      <use xlink:href="#DejaVuSans-30" transform="translate(941.158203 0)"/>
      <use xlink:href="#DejaVuSans-25" transform="translate(1004.78125 0)"/>
     </g>
    </g>
    <g id="line2d_21">
     <path d="M 250.740312 64.772812 
L 260.740312 64.772812 
L 270.740312 64.772812 
" style="fill: none; stroke: #2ca02c; stroke-width: 1.5; stroke-linecap: square"/>
    </g>
    <g id="text_19">
     <!-- Decreased by 5.00% -->
     <g transform="translate(278.740312 68.272812) scale(0.1 -0.1)">
      <use xlink:href="#DejaVuSans-44"/>
      <use xlink:href="#DejaVuSans-65" transform="translate(77.001953 0)"/>
      <use xlink:href="#DejaVuSans-63" transform="translate(138.525391 0)"/>
      <use xlink:href="#DejaVuSans-72" transform="translate(193.505859 0)"/>
      <use xlink:href="#DejaVuSans-65" transform="translate(232.369141 0)"/>
      <use xlink:href="#DejaVuSans-61" transform="translate(293.892578 0)"/>
      <use xlink:href="#DejaVuSans-73" transform="translate(355.171875 0)"/>
      <use xlink:href="#DejaVuSans-65" transform="translate(407.271484 0)"/>
      <use xlink:href="#DejaVuSans-64" transform="translate(468.794922 0)"/>
      <use xlink:href="#DejaVuSans-20" transform="translate(532.271484 0)"/>
      <use xlink:href="#DejaVuSans-62" transform="translate(564.058594 0)"/>
      <use xlink:href="#DejaVuSans-79" transform="translate(627.535156 0)"/>
      <use xlink:href="#DejaVuSans-20" transform="translate(686.714844 0)"/>
      <use xlink:href="#DejaVuSans-35" transform="translate(718.501953 0)"/>
      <use xlink:href="#DejaVuSans-2e" transform="translate(782.125 0)"/>
      <use xlink:href="#DejaVuSans-30" transform="translate(813.912109 0)"/>
      <use xlink:href="#DejaVuSans-30" transform="translate(877.535156 0)"/>
      <use xlink:href="#DejaVuSans-25" transform="translate(941.158203 0)"/>
     </g>
    </g>
    <g id="line2d_22">
     <path d="M 250.740312 79.450938 
L 260.740312 79.450938 
L 270.740312 79.450938 
" style="fill: none; stroke: #d62728; stroke-width: 1.5; stroke-linecap: square"/>
    </g>
    <g id="text_20">
     <!-- Increased by 5.00% -->
     <g transform="translate(278.740312 82.950938) scale(0.1 -0.1)">
      <defs>
       <path id="DejaVuSans-49" d="M 628 4666 
L 1259 4666 
L 1259 0 
L 628 0 
L 628 4666 
z
" transform="scale(0.015625)"/>
      </defs>
      <use xlink:href="#DejaVuSans-49"/>
      <use xlink:href="#DejaVuSans-6e" transform="translate(29.492188 0)"/>
      <use xlink:href="#DejaVuSans-63" transform="translate(92.871094 0)"/>
      <use xlink:href="#DejaVuSans-72" transform="translate(147.851562 0)"/>
      <use xlink:href="#DejaVuSans-65" transform="translate(186.714844 0)"/>
      <use xlink:href="#DejaVuSans-61" transform="translate(248.238281 0)"/>
      <use xlink:href="#DejaVuSans-73" transform="translate(309.517578 0)"/>
      <use xlink:href="#DejaVuSans-65" transform="translate(361.617188 0)"/>
      <use xlink:href="#DejaVuSans-64" transform="translate(423.140625 0)"/>
      <use xlink:href="#DejaVuSans-20" transform="translate(486.617188 0)"/>
      <use xlink:href="#DejaVuSans-62" transform="translate(518.404297 0)"/>
      <use xlink:href="#DejaVuSans-79" transform="translate(581.880859 0)"/>
      <use xlink:href="#DejaVuSans-20" transform="translate(641.060547 0)"/>
      <use xlink:href="#DejaVuSans-35" transform="translate(672.847656 0)"/>
      <use xlink:href="#DejaVuSans-2e" transform="translate(736.470703 0)"/>
      <use xlink:href="#DejaVuSans-30" transform="translate(768.257812 0)"/>
      <use xlink:href="#DejaVuSans-30" transform="translate(831.880859 0)"/>
      <use xlink:href="#DejaVuSans-25" transform="translate(895.503906 0)"/>
     </g>
    </g>
    <g id="line2d_23">
     <path d="M 250.740312 94.129063 
L 260.740312 94.129063 
L 270.740312 94.129063 
" style="fill: none; stroke: #9467bd; stroke-width: 1.5; stroke-linecap: square"/>
    </g>
    <g id="text_21">
     <!-- Increased by 10.00% -->
     <g transform="translate(278.740312 97.629063) scale(0.1 -0.1)">
      <use xlink:href="#DejaVuSans-49"/>
      <use xlink:href="#DejaVuSans-6e" transform="translate(29.492188 0)"/>
      <use xlink:href="#DejaVuSans-63" transform="translate(92.871094 0)"/>
      <use xlink:href="#DejaVuSans-72" transform="translate(147.851562 0)"/>
      <use xlink:href="#DejaVuSans-65" transform="translate(186.714844 0)"/>
      <use xlink:href="#DejaVuSans-61" transform="translate(248.238281 0)"/>
      <use xlink:href="#DejaVuSans-73" transform="translate(309.517578 0)"/>
      <use xlink:href="#DejaVuSans-65" transform="translate(361.617188 0)"/>
      <use xlink:href="#DejaVuSans-64" transform="translate(423.140625 0)"/>
      <use xlink:href="#DejaVuSans-20" transform="translate(486.617188 0)"/>
      <use xlink:href="#DejaVuSans-62" transform="translate(518.404297 0)"/>
      <use xlink:href="#DejaVuSans-79" transform="translate(581.880859 0)"/>
      <use xlink:href="#DejaVuSans-20" transform="translate(641.060547 0)"/>
      <use xlink:href="#DejaVuSans-31" transform="translate(672.847656 0)"/>
      <use xlink:href="#DejaVuSans-30" transform="translate(736.470703 0)"/>
      <use xlink:href="#DejaVuSans-2e" transform="translate(800.09375 0)"/>
      <use xlink:href="#DejaVuSans-30" transform="translate(831.880859 0)"/>
      <use xlink:href="#DejaVuSans-30" transform="translate(895.503906 0)"/>
      <use xlink:href="#DejaVuSans-25" transform="translate(959.126953 0)"/>
     </g>
    </g>
   </g>
  </g>
 </g>
 <defs>
  <clipPath id="p972add6594">
   <rect x="40.603125" y="22.318125" width="357.12" height="266.112"/>
  </clipPath>
 </defs>
</svg>
