<?xml version="1.0" encoding="UTF-8" standalone="no"?>
<!DOCTYPE svg PUBLIC "-//W3C//DTD SVG 1.1//EN"
        "http://www.w3.org/Graphics/SVG/1.1/DTD/svg11.dtd">
<!-- Generated by graphviz version 2.43.0 (0)
 -->
<!-- Title: %3 Pages: 1 -->
<svg width="391pt"
     height="548pt" viewBox="0.00 0.00 391.09 548.00" xmlns="http://www.w3.org/2000/svg">
    <g id="graph0" class="graph" transform="scale(1 1) rotate(0) translate(4 544)">
        <title>%3</title>
        <polygon fill="white" stroke="transparent" points="-4,4 -4,-544 387.09,-544 387.09,4 -4,4"/>
        <!-- scan.py -->
        <g id="node1" class="node">
            <title>scan.py</title>
            <ellipse fill="none" stroke="black" cx="110.69" cy="-450" rx="46.29" ry="18"/>
            <text text-anchor="middle" x="110.69" y="-446.3" font-family="Times,serif" font-size="14.00">scan.py</text>
        </g>
        <!-- local.py -->
        <g id="node2" class="node">
            <title>local.py</title>
            <ellipse fill="none" stroke="black" cx="278.69" cy="-378" rx="46.29" ry="18"/>
            <text text-anchor="middle" x="278.69" y="-374.3" font-family="Times,serif" font-size="14.00">local.py</text>
        </g>
        <!-- scan.py&#45;&gt;local.py -->
        <g id="edge1" class="edge">
            <title>scan.py&#45;&gt;local.py</title>
            <path fill="none" stroke="black" stroke-dasharray="5,2"
                  d="M125.69,-432C125.69,-432 190.26,-409.63 235.5,-393.96"/>
            <polygon fill="black" stroke="black" points="236.81,-397.21 245.12,-390.63 234.52,-390.6 236.81,-397.21"/>
        </g>
        <!-- remote_bhpc.py -->
        <g id="node3" class="node">
            <title>remote_bhpc.py</title>
            <ellipse fill="none" stroke="black" cx="129.69" cy="-378" rx="85.29" ry="18"/>
            <text text-anchor="middle" x="129.69" y="-374.3" font-family="Times,serif" font-size="14.00">
                remote_bhpc.py
            </text>
        </g>
        <!-- scan.py&#45;&gt;remote_bhpc.py -->
        <g id="edge2" class="edge">
            <title>scan.py&#45;&gt;remote_bhpc.py</title>
            <path fill="none" stroke="black" stroke-dasharray="5,2"
                  d="M125.69,-432C125.69,-432 126.66,-419.27 127.63,-406.29"/>
            <polygon fill="black" stroke="black" points="131.14,-406.3 128.41,-396.06 124.16,-405.77 131.14,-406.3"/>
        </g>
        <!-- creator.py -->
        <g id="node4" class="node">
            <title>creator.py</title>
            <ellipse fill="none" stroke="black" cx="218.69" cy="-306" rx="57.69" ry="18"/>
            <text text-anchor="middle" x="218.69" y="-302.3" font-family="Times,serif" font-size="14.00">creator.py
            </text>
        </g>
        <!-- local.py&#45;&gt;creator.py -->
        <g id="edge3" class="edge">
            <title>local.py&#45;&gt;creator.py</title>
            <path fill="none" stroke="black" stroke-dasharray="5,2"
                  d="M266.69,-360C266.69,-360 239.15,-340.72 224.95,-330.78"/>
            <polygon fill="black" stroke="black" points="226.89,-327.87 216.69,-325 222.88,-333.6 226.89,-327.87"/>
        </g>
        <!-- runner.py -->
        <g id="node5" class="node">
            <title>runner.py</title>
            <ellipse fill="none" stroke="black" cx="204.69" cy="-234" rx="55.79" ry="18"/>
            <text text-anchor="middle" x="204.69" y="-230.3" font-family="Times,serif" font-size="14.00">runner.py
            </text>
        </g>
        <!-- local.py&#45;&gt;runner.py -->
        <g id="edge5" class="edge">
            <title>local.py&#45;&gt;runner.py</title>
            <path fill="none" stroke="black" stroke-dasharray="5,2"
                  d="M266.69,-360C266.69,-360 304.11,-315.5 285.69,-288 268.64,-262.54 229.36,-255.58 210.78,-253.7"/>
            <polygon fill="black" stroke="black" points="210.91,-250.2 200.69,-253 210.43,-257.18 210.91,-250.2"/>
        </g>
        <!-- remote_bhpc.py&#45;&gt;creator.py -->
        <g id="edge4" class="edge">
            <title>remote_bhpc.py&#45;&gt;creator.py</title>
            <path fill="none" stroke="black" stroke-dasharray="5,2"
                  d="M134.69,-359C134.69,-359 185.75,-337.83 207.29,-328.9"/>
            <polygon fill="black" stroke="black" points="208.8,-332.06 216.69,-325 206.12,-325.6 208.8,-332.06"/>
        </g>
        <!-- BHPC -->
        <g id="node8" class="node">
            <title>BHPC</title>
            <ellipse fill="lightgrey" stroke="black" cx="104.69" cy="-306" rx="38.19" ry="18"/>
            <text text-anchor="middle" x="104.69" y="-302.3" font-family="Times,serif" font-size="14.00">BHPC</text>
        </g>
        <!-- remote_bhpc.py&#45;&gt;BHPC -->
        <g id="edge7" class="edge">
            <title>remote_bhpc.py&#45;&gt;BHPC</title>
            <path fill="none" stroke="black" stroke-dasharray="5,2"
                  d="M134.69,-359C134.69,-359 126.96,-345.59 119.34,-332.39"/>
            <polygon fill="black" stroke="black" points="122.22,-330.37 114.19,-323.45 116.15,-333.86 122.22,-330.37"/>
        </g>
        <!-- creator.py&#45;&gt;local.py -->
        <g id="edge10" class="edge">
            <title>creator.py&#45;&gt;local.py</title>
            <path fill="none" stroke="black" stroke-dasharray="1,5"
                  d="M216.69,-325C216.69,-325 235.26,-340.57 252.07,-354.67"/>
            <polygon fill="black" stroke="black" points="250.18,-357.65 260.09,-361.4 254.68,-352.29 250.18,-357.65"/>
            <text text-anchor="middle" x="190.69" y="-328.8" font-family="Times,serif" font-size="14.00">psm.py</text>
        </g>
        <!-- creator.py&#45;&gt;remote_bhpc.py -->
        <g id="edge11" class="edge">
            <title>creator.py&#45;&gt;remote_bhpc.py</title>
            <path fill="none" stroke="black" stroke-dasharray="1,5"
                  d="M216.69,-325C216.69,-325 189.4,-341.31 165.39,-355.67"/>
            <polygon fill="black" stroke="black" points="163.53,-352.7 156.74,-360.83 167.12,-358.71 163.53,-352.7"/>
            <text text-anchor="middle" x="242.69" y="-328.8" font-family="Times,serif" font-size="14.00">psm.py</text>
        </g>
        <!-- summarize.py -->
        <g id="node6" class="node">
            <title>summarize.py</title>
            <ellipse fill="none" stroke="black" cx="204.69" cy="-90" rx="76.09" ry="18"/>
            <text text-anchor="middle" x="204.69" y="-86.3" font-family="Times,serif" font-size="14.00">summarize.py
            </text>
        </g>
        <!-- runner.py&#45;&gt;summarize.py -->
        <g id="edge9" class="edge">
            <title>runner.py&#45;&gt;summarize.py</title>
            <path fill="none" stroke="black" stroke-dasharray="5,2"
                  d="M208.69,-215C208.69,-215 194.81,-197 190.69,-180 185.71,-159.41 189.92,-135.7 194.99,-117.93"/>
            <polygon fill="black" stroke="black" points="198.38,-118.81 198.01,-108.23 191.69,-116.73 198.38,-118.81"/>
        </g>
        <!-- Pelmo -->
        <g id="node7" class="node">
            <title>Pelmo</title>
            <ellipse fill="lightgrey" stroke="black" cx="238.69" cy="-162" rx="38.99" ry="18"/>
            <text text-anchor="middle" x="238.69" y="-158.3" font-family="Times,serif" font-size="14.00">Pelmo</text>
        </g>
        <!-- runner.py&#45;&gt;Pelmo -->
        <g id="edge6" class="edge">
            <title>runner.py&#45;&gt;Pelmo</title>
            <path fill="none" stroke="black" stroke-dasharray="5,2"
                  d="M208.69,-215C208.69,-215 216.33,-201.76 223.9,-188.64"/>
            <polygon fill="black" stroke="black" points="227.07,-190.15 229.04,-179.74 221.01,-186.65 227.07,-190.15"/>
        </g>
        <!-- JSON Output -->
        <g id="node12" class="node">
            <title>JSON Output</title>
            <ellipse fill="green" stroke="green" cx="127.69" cy="-18" rx="71.49" ry="18"/>
            <text text-anchor="middle" x="127.69" y="-14.3" font-family="Times,serif" font-size="14.00">JSON Output
            </text>
        </g>
        <!-- summarize.py&#45;&gt;JSON Output -->
        <g id="edge13" class="edge">
            <title>summarize.py&#45;&gt;JSON Output</title>
            <path fill="none" stroke="black" stroke-dasharray="1,5"
                  d="M204.69,-71C204.69,-71 181.17,-55.11 160.12,-40.9"/>
            <polygon fill="black" stroke="black" points="161.88,-37.86 151.64,-35.17 157.96,-43.67 161.88,-37.86"/>
            <text text-anchor="middle" x="179.19" y="-59.8" font-family="Times,serif" font-size="14.00">Output</text>
        </g>
        <!-- CSV Output -->
        <g id="node13" class="node">
            <title>CSV Output</title>
            <ellipse fill="green" stroke="green" cx="282.69" cy="-18" rx="65.79" ry="18"/>
            <text text-anchor="middle" x="282.69" y="-14.3" font-family="Times,serif" font-size="14.00">CSV Output
            </text>
        </g>
        <!-- summarize.py&#45;&gt;CSV Output -->
        <g id="edge14" class="edge">
            <title>summarize.py&#45;&gt;CSV Output</title>
            <path fill="none" stroke="black" stroke-dasharray="1,5"
                  d="M204.69,-71C204.69,-71 229.04,-54.77 250.53,-40.45"/>
            <polygon fill="black" stroke="black" points="252.49,-43.34 258.87,-34.88 248.61,-37.52 252.49,-43.34"/>
            <text text-anchor="middle" x="230.19" y="-59.8" font-family="Times,serif" font-size="14.00">Output</text>
        </g>
        <!-- Pelmo&#45;&gt;summarize.py -->
        <g id="edge12" class="edge">
            <title>Pelmo&#45;&gt;summarize.py</title>
            <path fill="none" stroke="black" stroke-dasharray="1,5"
                  d="M230.46,-144.05C226.6,-136.09 221.89,-126.41 217.57,-117.51"/>
            <polygon fill="black" stroke="black" points="220.6,-115.74 213.09,-108.28 214.31,-118.8 220.6,-115.74"/>
            <text text-anchor="middle" x="207.96" y="-132.85" font-family="Times,serif" font-size="14.00">*.PLM</text>
        </g>
        <!-- BHPC&#45;&gt;runner.py -->
        <g id="edge8" class="edge">
            <title>BHPC&#45;&gt;runner.py</title>
            <path fill="none" stroke="black" stroke-dasharray="5,2"
                  d="M128.92,-291.88C149.36,-280.81 177.5,-265.57 191.71,-257.87"/>
            <polygon fill="black" stroke="black" points="193.57,-260.84 200.69,-253 190.23,-254.69 193.57,-260.84"/>
        </g>
        <!-- GAP Machine -->
        <g id="node9" class="node">
            <title>GAP Machine</title>
            <ellipse fill="lightgreen" stroke="green" cx="218.69" cy="-522" rx="73.39" ry="18"/>
            <text text-anchor="middle" x="218.69" y="-518.3" font-family="Times,serif" font-size="14.00">GAP Machine
            </text>
        </g>
        <!-- GAP Machine&#45;&gt;scan.py -->
        <g id="edge21" class="edge">
            <title>GAP Machine&#45;&gt;scan.py</title>
            <path fill="none" stroke="black" stroke-width="2" d="M210.69,-503C210.69,-503 175,-484.44 146.26,-469.5"/>
            <polygon fill="black" stroke="black" stroke-width="2"
                     points="147.72,-466.31 137.23,-464.8 144.49,-472.52 147.72,-466.31"/>
        </g>
        <!-- GAP Machine&#45;&gt;local.py -->
        <g id="edge15" class="edge">
            <title>GAP Machine&#45;&gt;local.py</title>
            <path fill="none" stroke="black" stroke-width="2"
                  d="M210.69,-503C210.69,-503 226.73,-484.62 236.69,-468 248.85,-447.72 260.13,-423.36 267.94,-405.26"/>
            <polygon fill="black" stroke="black" stroke-width="2"
                     points="271.22,-406.48 271.9,-395.91 264.78,-403.75 271.22,-406.48"/>
        </g>
        <!-- GAP Machine&#45;&gt;remote_bhpc.py -->
        <g id="edge16" class="edge">
            <title>GAP Machine&#45;&gt;remote_bhpc.py</title>
            <path fill="none" stroke="black" stroke-width="2"
                  d="M210.69,-503C210.69,-503 186.19,-463.23 165.69,-432 159.74,-422.93 153.1,-413.08 147.16,-404.37"/>
            <polygon fill="black" stroke="black" stroke-width="2"
                     points="150.04,-402.37 141.51,-396.09 144.26,-406.32 150.04,-402.37"/>
        </g>
        <!-- Excel -->
        <g id="node10" class="node">
            <title>Excel</title>
            <ellipse fill="lightgreen" stroke="green" cx="346.69" cy="-522" rx="36.29" ry="18"/>
            <text text-anchor="middle" x="346.69" y="-518.3" font-family="Times,serif" font-size="14.00">Excel</text>
        </g>
        <!-- Excel&#45;&gt;local.py -->
        <g id="edge17" class="edge">
            <title>Excel&#45;&gt;local.py</title>
            <path fill="none" stroke="black" stroke-width="2"
                  d="M331.69,-504C331.69,-504 305.47,-442.15 289.92,-405.47"/>
            <polygon fill="black" stroke="black" stroke-width="2"
                     points="292.97,-403.7 285.84,-395.86 286.52,-406.43 292.97,-403.7"/>
        </g>
        <!-- Excel&#45;&gt;remote_bhpc.py -->
        <g id="edge18" class="edge">
            <title>Excel&#45;&gt;remote_bhpc.py</title>
            <path fill="none" stroke="black" stroke-width="2"
                  d="M331.69,-504C331.69,-504 222.82,-436.63 164.93,-400.8"/>
            <polygon fill="black" stroke="black" stroke-width="2"
                     points="166.45,-397.63 156.1,-395.34 162.76,-403.58 166.45,-397.63"/>
        </g>
        <!-- JSON Input -->
        <g id="node11" class="node">
            <title>JSON Input</title>
            <ellipse fill="lightgreen" stroke="green" cx="63.69" cy="-522" rx="63.89" ry="18"/>
            <text text-anchor="middle" x="63.69" y="-518.3" font-family="Times,serif" font-size="14.00">JSON Input
            </text>
        </g>
        <!-- JSON Input&#45;&gt;scan.py -->
        <g id="edge22" class="edge">
            <title>JSON Input&#45;&gt;scan.py</title>
            <path fill="none" stroke="black" stroke-width="2" d="M77.69,-503C77.69,-503 86.26,-489.5 94.66,-476.26"/>
            <polygon fill="black" stroke="black" stroke-width="2"
                     points="97.67,-478.06 100.07,-467.74 91.76,-474.31 97.67,-478.06"/>
        </g>
        <!-- JSON Input&#45;&gt;local.py -->
        <g id="edge19" class="edge">
            <title>JSON Input&#45;&gt;local.py</title>
            <path fill="none" stroke="black" stroke-width="2"
                  d="M77.69,-503C77.69,-503 129.23,-489.02 165.69,-468 198.65,-449.01 232.38,-421.12 254.31,-401.63"/>
            <polygon fill="black" stroke="black" stroke-width="2"
                     points="256.74,-404.16 261.83,-394.87 252.06,-398.95 256.74,-404.16"/>
        </g>
        <!-- JSON Input&#45;&gt;remote_bhpc.py -->
        <g id="edge20" class="edge">
            <title>JSON Input&#45;&gt;remote_bhpc.py</title>
            <path fill="none" stroke="black" stroke-width="2"
                  d="M77.69,-503C77.69,-503 60.78,-485.65 55.69,-468 51.26,-452.63 48.38,-446.23 55.69,-432 62.44,-418.88 74.1,-408.28 86.2,-400.11"/>
            <polygon fill="black" stroke="black" stroke-width="2"
                     points="88.4,-402.86 95.02,-394.59 84.69,-396.93 88.4,-402.86"/>
        </g>
    </g>
</svg>
